#!OML:ASF I:\Actors\actors\Patient Classification 1\Patient 1\Session 1\Subject1.ASF
:FULLY-SPECIFIED
:DEGREES
1043
root 0.706219 17.5291 9.18094 6.89464 -4.50849 -9.71591
lowerback 3.79681 1.87238 8.88326
upperback -2.87848 3.06439 0.519451
thorax -4.7207 1.2282 -4.6618
lowerneck -17.705 -3.12268 -1.45633
upperneck 39.7645 -6.54591 5.05668
head 18.0743 -2.14647 1.28768
rclavicle 7.60351e-015 4.53229e-014
rhumerus -33.9578 79.4721 -98.9525
rradius 96.0115
rwrist 7.9215
rhand 7.94988 -27.1856
rfingers 7.12502
rthumb 33.1794 305.852
lclavicle 7.60351e-015 4.53229e-014
lhumerus -66.0028 -75.7369 121.598
lradius 83.7566
lwrist 55.4604
lhand -13.5928 -14.7713
lfingers 7.12502
lthumb 12.5217 14.8335
rfemur -4.3905 20.8292 27.2159
rtibia 6.02261
rfoot -12.287 -22.0916
rtoes 5.47888
lfemur 3.67895 -29.1959 -10.0011
ltibia -0.735213
lfoot -12.6728 40.2391
ltoes -2.00304
1044
root 0.707984 17.528 9.18287 6.97025 -4.3348 -9.72396
lowerback 3.73767 1.84974 8.89475
upperback -2.89841 3.02957 0.515587
thorax -4.71245 1.21032 -4.66791
lowerneck -17.7601 -3.13153 -1.40821
upperneck 39.7195 -6.57468 5.05798
head 18.0626 -2.14956 1.27215
rclavicle -9.24349e-015 -1.43125e-014
rhumerus -36.6041 78.8811 -101.396
rradius 96.0233
rwrist 3.96578
rhand 8.41317 -30.6305
rfingers 7.12502
rthumb 33.6198 302.502
lclavicle -9.24349e-015 -1.43125e-014
lhumerus -65.554 -75.428 121.1
lradius 83.7133
lwrist 55.5141
lhand -12.954 -14.9888
lfingers 7.12502
lthumb 13.1376 14.5773
rfemur -4.48231 20.7414 27.188
rtibia 6.04811
rfoot -12.4028 -22.1557
rtoes 5.72528
lfemur 3.51677 -29.4046 -9.94931
ltibia -0.663948
lfoot -12.7772 40.2912
ltoes -1.93422
1045
root 0.70852 17.5263 9.18473 6.99949 -4.14588 -9.71593
lowerback 3.74165 1.81211 8.87691
upperback -2.91672 2.97981 0.513574
thorax -4.74195 1.1843 -4.65767
lowerneck -17.8606 -3.14512 -1.39763
upperneck 39.7423 -6.61244 5.08064
head 18.1063 -2.15674 1.27241
rclavicle -2.5345e-014 7.95139e-016
rhumerus -39.2346 78.0903 -103.805
rradius 96.0683
rwrist -0.832357
rhand 8.80591 -34.4247
rfingers 7.12502
rthumb 33.9929 298.79
lclavicle -2.5345e-014 7.95139e-016
lhumerus -65.2696 -75.1923 120.783
lradius 83.6743
lwrist 55.7122
lhand -12.2355 -15.0635
lfingers 7.12502
lthumb 13.8301 14.4568
rfemur -4.51003 20.709 27.1652
rtibia 6.04622
rfoot -12.5265 -22.2773
rtoes 6.03001
lfemur 3.3869 -29.5803 -9.91568
ltibia -0.588192
lfoot -12.7759 40.2909
ltoes -1.95899
1046
root 0.709806 17.5246 9.18734 6.99695 -3.9607 -9.67946
lowerback 3.76756 1.78409 8.86891
upperback -2.90641 2.94284 0.483393
thorax -4.74993 1.16566 -4.68351
lowerneck -18.02 -3.17752 -1.44566
upperneck 39.8099 -6.68978 5.16924
head 18.2019 -2.17701 1.30628
rclavicle 9.39258e-015 2.38542e-014
rhumerus -41.0307 77.0937 -105.314
rradius 96.2238
rwrist -6.24265
rhand 9.5046 -38.4684
rfingers 7.12502
rthumb 34.6563 294.896
lclavicle 9.39258e-015 2.38542e-014
lhumerus -65.1421 -75.0845 120.598
lradius 83.7314
lwrist 55.9436
lhand -11.8518 -15.1103
lfingers 7.12502
lthumb 14.1998 14.3844
rfemur -4.48773 20.6567 27.1224
rtibia 5.99903
rfoot -12.5466 -22.4077
rtoes 6.04457
lfemur 3.30138 -29.6937 -9.92631
ltibia -0.540481
lfoot -12.6552 40.2289
ltoes -2.05811
1047
root 0.706745 17.527 9.19381 6.89601 -3.89362 -9.63069
lowerback 3.83909 1.79746 8.77862
upperback -2.84042 2.95824 0.466053
thorax -4.72114 1.17942 -4.65387
lowerneck -18.177 -3.22164 -1.54526
upperneck 39.8701 -6.78261 5.29993
head 18.2995 -2.20543 1.36603
rclavicle 2.66123e-014 -1.74931e-014
rhumerus -42.2894 75.9626 -106.23
rradius 96.3822
rwrist -10.8793
rhand 10.4916 -42.5736
rfingers 7.12502
rthumb 35.5925 291.011
lclavicle 2.66123e-014 -1.74931e-014
lhumerus -65.131 -75.0778 120.488
lradius 83.8773
lwrist 56.0366
lhand -11.9343 -15.1432
lfingers 7.12502
lthumb 14.1203 14.357
rfemur -4.29347 20.7282 27.1495
rtibia 5.9323
rfoot -12.587 -22.5659
rtoes 6.1373
lfemur 3.49448 -29.7333 -10.0562
ltibia -0.629615
lfoot -12.6346 40.1816
ltoes -2.06184
1048
root 0.703958 17.5303 9.19947 6.78777 -3.86436 -9.61319
lowerback 3.94423 1.81828 8.71337
upperback -2.7802 2.99031 0.480738
thorax -4.71606 1.19977 -4.60731
lowerneck -18.2722 -3.27883 -1.70583
upperneck 39.8724 -6.86715 5.43342
head 18.349 -2.24216 1.4392
rclavicle -5.31749e-015 9.54166e-015
rhumerus -43.4053 74.2963 -107.122
rradius 96.3784
rwrist -14.2353
rhand 11.9647 -47.0689
rfingers 7.12502
rthumb 36.9873 286.863
lclavicle -5.31749e-015 9.54166e-015
lhumerus -65.19 -75.1602 120.506
lradius 84.0404
lwrist 56.1021
lhand -12.1899 -14.9584
lfingers 7.12502
lthumb 13.874 14.5588
rfemur -4.10784 20.7854 27.2132
rtibia 5.92093
rfoot -12.6868 -22.6404
rtoes 6.34786
lfemur 3.70189 -29.6307 -10.1332
ltibia -0.751405
lfoot -12.5457 40.0489
ltoes -2.24911
1049
root 0.700305 17.5322 9.199 6.7586 -3.74448 -9.61301
lowerback 4.04724 1.80706 8.65011
upperback -2.7514 2.9816 0.502421
thorax -4.74922 1.19724 -4.55266
lowerneck -18.3325 -3.31637 -1.79128
upperneck 39.7811 -6.91893 5.51582
head 18.3244 -2.26408 1.47953
rclavicle -1.78658e-014 -5.08889e-014
rhumerus -43.9607 71.6023 -107.713
rradius 96.1456
rwrist -16.9098
rhand 8.93741 -52.5283
rfingers 7.12502
rthumb 34.1178 280.714
lclavicle -1.78658e-014 -5.08889e-014
lhumerus -65.2158 -75.203 120.573
lradius 84.1806
lwrist 56.3597
lhand -12.3715 -14.7689
lfingers 7.12502
lthumb 13.699 14.7603
rfemur -4.06099 20.8529 27.2604
rtibia 5.95007
rfoot -12.7967 -22.7752
rtoes 6.45042
lfemur 3.65502 -29.4598 -10.0457
ltibia -0.772885
lfoot -12.3278 39.7933
ltoes -2.54299
